<svg xmlns="http://www.w3.org/2000/svg" viewBox="0 0 2984.88 368.5"><path fill="#FF6B01" d="M276.38 120.15c-25.61 0-46.45-20.83-46.45-46.44s20.83-46.44 46.45-46.44 46.45 20.83 46.45 46.44-20.84 46.44-46.45 46.44z"/><path fill="#01BE00" d="M239.53 221.1c0 20.35-16.5 36.85-36.85 36.85h-92.13v73.7h92.13c61.06 0 110.55-49.5 110.55-110.55v-73.7H110.55c0-20.35 16.5-36.85 36.85-36.85h55.28v-73.7H147.4c-61.06 0-110.55 49.5-110.55 110.55v73.7h202.68z"/><path fill="#1A171B" d="M2901.58 33.93h-19.31c-32.75 0-54.37 20.76-54.37 51.77v86.55c0 30.99 21.35 51.76 54.37 51.76h14.34c32.75 0 54.39-20.77 54.39-51.76v-44.46c0-2.06-.88-2.93-2.94-2.93h-61.1c-2.04 0-2.92.87-2.92 2.93v24.87c0 2.04.88 2.91 2.92 2.91h27.49c1.76 0 2.91.89 2.91 2.94v13.74c0 11.97-9.05 21.05-20.74 21.05h-14.34c-11.7 0-21.05-9.35-21.05-21.05V85.69c0-11.7 9.35-21.07 21.05-21.07h19.31c8.48 0 14.04 4.98 19.01 14.04 1.76 3.21 2.35 4.98 4.08 4.98.31 0 .89 0 1.48-.3l25.43-12.57c1.17-.59 1.77-1.48 1.77-2.36 0-3.49-7.02-16.66-18.45-24.84-9.06-6.43-19.89-9.64-33.33-9.64m-106.94 184.23V39.78c0-2.04-1.16-2.91-2.91-2.91h-26.91c-2.04 0-2.93.87-2.93 2.91l1.17 117.25-59.65-118.71-2.62-1.45h-24.55c-2.07 0-2.93.87-2.93 2.91v178.39c0 2.04.86 2.91 2.93 2.91h27.17c2.07 0 2.92-.87 2.92-2.91l-1.46-116.1 59.95 117.54 2.65 1.46h24.26c2.05 0 2.91-.87 2.91-2.91m-155.06-45.92V39.78c0-2.04-.87-2.91-2.91-2.91h-27.78c-2.07 0-2.94.87-2.94 2.91v132.47c0 11.97-9.06 21.05-20.76 21.05h-14.33c-11.69 0-21.04-9.35-21.04-21.05V39.78c0-2.04-1.18-2.91-2.91-2.91h-27.5c-2.04 0-2.92.87-2.92 2.91v132.47c0 30.99 21.35 51.76 54.38 51.76h14.33c32.74 0 54.38-20.78 54.38-51.77M2491.81 64.63V39.78c0-2.04-1.18-2.91-2.93-2.91h-102.92c-2.07 0-2.94.87-2.94 2.91v24.85c0 2.04.87 2.93 2.94 2.93h31.86c2.06 0 2.92.87 2.92 2.92v147.68c0 2.04.89 2.91 2.93 2.91h27.49c2.04 0 2.91-.87 2.91-2.91V70.48c0-2.06.9-2.92 2.94-2.92h31.88c2.04-.01 2.92-.89 2.92-2.93m-108.79 153.53v-24.87c0-2.06-1.17-2.92-2.91-2.92h-69.6c-2.04 0-2.93-.88-2.93-2.92V39.78c0-2.04-1.16-2.91-2.92-2.91h-27.78c-2.04 0-2.93.87-2.93 2.91v178.39c0 2.04.88 2.91 2.93 2.91h103.22c2.06-.01 2.92-.88 2.92-2.92m-187.27-66.1c0 .29.31.87.31 1.17 0 1.73-1.19 2.63-3.23 2.63h-21.35c-2.04 0-3.2-.9-3.2-2.63 0-.31.27-.88.27-1.17l9.96-38.61c.29-1.74 1.47-7.01 3.5-16.07h.87c1.76 9.06 2.94 14.33 3.21 16.07l9.66 38.61zm54.4 65.2l-54.4-178.35c-.58-1.48-1.46-2.04-2.92-2.04h-21.05c-1.76 0-2.34.56-2.93 2.04l-54.38 178.35c0 .59-.29.9-.29 1.17 0 1.77 1.16 2.64 3.2 2.64h29.24c1.46 0 2.65-.59 2.94-2.05l8.75-30.7c.3-1.48 1.18-1.75 2.94-1.75h41.81c1.75 0 2.64.27 2.92 1.75l8.77 30.7c.3 1.45 1.17 2.05 2.93 2.05h29.53c2.05 0 3.21-.87 3.21-2.64 0-.27-.27-.58-.27-1.17M2117.34 64.63V39.78c0-2.04-1.15-2.91-2.91-2.91H2011.5c-2.04 0-2.92.87-2.92 2.91v24.85c0 2.04.88 2.93 2.92 2.93h31.89c2.04 0 2.91.87 2.91 2.92v147.68c0 2.04.87 2.91 2.94 2.91h27.47c2.04 0 2.92-.87 2.92-2.91V70.48c0-2.06.88-2.92 2.93-2.92h31.88c2.04-.01 2.9-.89 2.9-2.93m-186.13 0h4.38c9.08 0 14.04 5.26 19.58 14.62 1.77 2.63 2.35 4.4 3.81 4.4.29 0 .88 0 1.46-.3l25.45-12.57c1.17-.59 1.75-1.17 1.75-2.36 0-3.49-7.31-16.66-18.72-24.84-9.37-6.71-19.88-9.66-33.34-9.66h-4.38c-32.75 0-54.39 20.76-54.39 51.77 0 28.93 16.37 42.09 48.54 57.58 19.01 9.08 31.3 14.33 31.3 28.97 0 11.7-9.65 21.05-21.06 21.05h-11.7c-6.73 0-14.03-4.37-17.26-10.52-2.91-5.85-3.51-8.77-5.56-8.77-.58 0-.87 0-1.46.29l-25.44 12.56c-1.15.59-1.74 1.48-1.74 2.07 0 2.91 3.78 11.39 13.44 21.32 8.77 9.06 21.35 13.77 38.01 13.77h11.7c33.05 0 54.4-20.77 54.4-51.76 0-28.97-14.62-45.03-45.93-59.35-20.46-9.38-33.9-13.47-33.9-27.2.01-12.01 9.67-21.07 21.06-21.07m-82.03 153.53v-24.87c0-2.06-1.15-2.92-2.92-2.92h-69.58c-2.04 0-2.94-.88-2.94-2.92v-41.53c0-2.04.9-2.91 2.94-2.91h57.02c2.04 0 2.94-.87 2.94-2.94v-24.85c0-2.04-.9-2.91-2.94-2.91h-57.02c-2.04 0-2.94-.88-2.94-2.94V70.48c0-2.06.9-2.92 2.94-2.92h69.58c2.07 0 2.92-.88 2.92-2.93V39.78c0-2.04-1.15-2.91-2.92-2.91h-103.19c-2.07 0-2.94.87-2.94 2.91v178.39c0 2.04.87 2.91 2.94 2.91h103.19c2.07-.01 2.92-.88 2.92-2.92M1657.17 33.93h-19.28c-32.76 0-54.4 20.76-54.4 51.77v86.55c0 30.99 21.35 51.76 54.4 51.76h14.31c32.75 0 54.39-20.77 54.39-51.76v-44.46c0-2.06-.87-2.93-2.94-2.93h-61.1c-2.04 0-2.92.87-2.92 2.93v24.87c0 2.04.88 2.91 2.92 2.91h27.49c1.75 0 2.94.89 2.94 2.94v13.74c0 11.97-9.08 21.05-20.78 21.05h-14.31c-11.69 0-21.06-9.35-21.06-21.05V85.69c0-11.7 9.37-21.07 21.06-21.07h19.28c8.48 0 14.04 4.98 19.01 14.04 1.75 3.21 2.34 4.98 4.08 4.98.3 0 .9 0 1.48-.3l25.43-12.57c1.17-.59 1.77-1.48 1.77-2.36 0-3.49-7.02-16.66-18.41-24.84-9.09-6.43-19.9-9.64-33.36-9.64m-241.82 30.7h4.39c9.07 0 14.04 5.26 19.6 14.62 1.75 2.63 2.33 4.4 3.79 4.4.29 0 .88 0 1.46-.3l25.45-12.57c1.17-.59 1.75-1.17 1.75-2.36 0-3.49-7.31-16.66-18.72-24.84-9.37-6.71-19.88-9.66-33.34-9.66h-4.39c-32.74 0-54.37 20.76-54.37 51.77 0 28.93 16.36 42.09 48.52 57.58 19.01 9.08 31.3 14.33 31.3 28.97 0 11.7-9.64 21.05-21.06 21.05h-11.7c-6.73 0-14.03-4.37-17.26-10.52-2.91-5.85-3.5-8.77-5.56-8.77-.58 0-.85 0-1.46.29l-25.43 12.56c-1.16.59-1.74 1.48-1.74 2.07 0 2.91 3.78 11.39 13.43 21.32 8.77 9.06 21.35 13.77 38.02 13.77h11.7c33.04 0 54.4-20.77 54.4-51.76 0-28.97-14.62-45.03-45.92-59.35-20.45-9.38-33.91-13.47-33.91-27.2 0-12.01 9.66-21.07 21.05-21.07m-86.33 153.53V39.78c0-2.04-.9-2.91-2.94-2.91h-27.47c-2.05 0-2.93.87-2.93 2.91v69.58c0 2.06-.88 2.94-2.92 2.94h-54.4c-2.04 0-2.91-.88-2.91-2.94V39.78c0-2.04-1.18-2.91-2.94-2.91h-27.76c-2.06 0-2.94.87-2.94 2.91v178.39c0 2.04.88 2.91 2.94 2.91h27.76c2.04 0 2.94-.87 2.94-2.91v-72.25c0-2.04.86-2.91 2.91-2.91h54.4c2.04 0 2.92.87 2.92 2.91v72.25c0 2.04.87 2.91 2.93 2.91h27.47c2.03-.01 2.94-.88 2.94-2.92M1175.09 64.63V39.78c0-2.04-1.16-2.91-2.93-2.91h-102.92c-2.06 0-2.92.87-2.92 2.91v24.85c0 2.04.87 2.93 2.92 2.93h31.86c2.04 0 2.92.87 2.92 2.92v147.68c0 2.04.89 2.91 2.92 2.91h27.47c2.07 0 2.94-.87 2.94-2.91V70.48c0-2.06.87-2.92 2.91-2.92h31.89c2.06-.01 2.94-.89 2.94-2.93m-160.28 87.43c0 .29.3.87.3 1.17 0 1.73-1.17 2.63-3.23 2.63h-21.33c-2.06 0-3.22-.9-3.22-2.63 0-.31.27-.88.27-1.17l9.96-38.61c.27-1.74 1.46-7.01 3.5-16.07h.88c1.73 9.06 2.92 14.33 3.2 16.07l9.67 38.61zm54.4 65.2l-54.4-178.35c-.58-1.48-1.46-2.04-2.93-2.04h-21.05c-1.75 0-2.34.56-2.92 2.04l-54.4 178.35c0 .59-.27.9-.27 1.17 0 1.77 1.18 2.64 3.22 2.64h29.24c1.46 0 2.63-.59 2.91-2.05l8.79-30.7c.29-1.48 1.17-1.75 2.91-1.75h41.83c1.75 0 2.62.27 2.91 1.75l8.79 30.7c.29 1.45 1.17 2.05 2.91 2.05h29.55c2.04 0 3.2-.87 3.2-2.64-.02-.27-.29-.58-.29-1.17M878.64 91.24c0 11.69-9.66 21.06-21.06 21.06h-32.15c-2.05 0-2.94-.88-2.94-2.94V70.48c0-2.06.88-2.92 2.94-2.92h32.15c11.41 0 21.06 9.66 21.06 21.05v2.63zm36.27 126.02l-27.78-80.41v-.29c0-2.62 6.73-6.12 12-11.1 5.85-6.44 12.85-17.54 12.85-31.28v-2.94c0-33.32-21.05-54.37-54.4-54.37h-65.79c-2.04 0-2.91.87-2.91 2.91v178.39c0 2.04.87 2.91 2.91 2.91h27.79c2.06 0 2.91-.87 2.91-2.91v-72.25c0-2.04.88-2.91 2.94-2.91h26.01l2.33 1.75 25.74 74.27c.88 1.45 1.77 2.05 2.65 2.05h30.1c2.07 0 2.95-.87 2.95-2.35 0-.3 0-.88-.3-1.47m-156.2.9v-24.87c0-2.06-1.19-2.92-2.94-2.92h-69.59c-2.04 0-2.92-.88-2.92-2.92v-41.53c0-2.04.88-2.91 2.92-2.91h57.02c2.04 0 2.92-.87 2.92-2.94v-24.85c0-2.04-.88-2.91-2.92-2.91h-57.02c-2.04 0-2.92-.88-2.92-2.94V70.48c0-2.06.88-2.92 2.92-2.92h69.59c2.05 0 2.94-.88 2.94-2.93V39.78c0-2.04-1.19-2.91-2.94-2.91H652.56c-2.05 0-2.92.87-2.92 2.91v178.39c0 2.04.87 2.91 2.92 2.91h103.21c2.05-.01 2.94-.88 2.94-2.92m-144.67 0V39.78c0-2.04-1.17-2.91-2.91-2.91h-27.78c-2.07 0-2.94.87-2.94 2.91v178.39c0 2.04.87 2.91 2.94 2.91h27.78c2.05-.01 2.91-.88 2.91-2.92M497.46 33.93h-19.31c-32.74 0-54.37 20.76-54.37 51.77v86.55c0 30.99 21.35 51.76 54.37 51.76h14.35c32.74 0 54.4-20.77 54.4-51.76v-44.46c0-2.06-.9-2.93-2.94-2.93h-61.12c-2.04 0-2.93.87-2.93 2.93v24.87c0 2.04.88 2.91 2.93 2.91h27.49c1.76 0 2.91.89 2.91 2.94v13.74c0 11.97-9.05 21.05-20.74 21.05h-14.35c-11.7 0-21.05-9.35-21.05-21.05V85.69c0-11.7 9.35-21.07 21.05-21.07h19.31c8.5 0 14.04 4.98 19.01 14.04 1.77 3.21 2.34 4.98 4.1 4.98.29 0 .86 0 1.46-.3l25.45-12.57c1.16-.59 1.75-1.48 1.75-2.36 0-3.49-7.02-16.66-18.44-24.84-9.05-6.43-19.88-9.64-33.33-9.64"/></svg>