<?xml version="1.0" encoding="utf-8"?>
<!-- Generator: Adobe Illustrator 16.0.0, SVG Export Plug-In . SVG Version: 6.00 Build 0)  -->
<svg version="1.2" baseProfile="tiny" id="Ebene_1" xmlns="http://www.w3.org/2000/svg" xmlns:xlink="http://www.w3.org/1999/xlink"
	 viewBox="0 0 285.97 304.4" xml:space="preserve">
<path fill="#FF6B00" d="M239.53,92.89c-25.61,0-46.45-20.83-46.45-46.44S213.92,0,239.53,0s46.45,20.83,46.45,46.44
	S265.14,92.89,239.53,92.89z"/>
<path fill="#00BE00" d="M202.68,193.85c0,20.35-16.5,36.85-36.85,36.85H73.7v73.7l92.13,0c61.06,0,110.55-49.5,110.55-110.55v-73.7
	l-202.68,0c0-20.35,16.5-36.85,36.85-36.85l55.28,0V9.59l-55.28,0C49.5,9.59,0,59.09,0,120.15v73.7L202.68,193.85z"/>
</svg>
