<?xml version="1.0" encoding="utf-8"?>
<!-- Generator: Adobe Illustrator 16.0.0, SVG Export Plug-In . SVG Version: 6.00 Build 0)  -->
<!DOCTYPE svg PUBLIC "-//W3C//DTD SVG 1.1//EN" "http://www.w3.org/Graphics/SVG/1.1/DTD/svg11.dtd">
<svg version="1.1" id="Ebene_1" xmlns="http://www.w3.org/2000/svg" xmlns:xlink="http://www.w3.org/1999/xlink" viewBox="0 0 2984.88 368.5" enable-background="new 0 0 2984.88 368.5" xml:space="preserve">
<g>
	<path fill="#FF6B01" d="M276.38,120.15c-25.61,0-46.45-20.83-46.45-46.44s20.83-46.44,46.45-46.44s46.45,20.83,46.45,46.44
		S301.99,120.15,276.38,120.15z"/>
</g>
<path fill="#01BE00" d="M239.53,221.1c0,20.35-16.5,36.85-36.85,36.85h-92.13v73.7l92.13,0c61.06,0,110.55-49.5,110.55-110.55v-73.7
	l-202.68,0c0-20.35,16.5-36.85,36.85-36.85l55.28,0v-73.7l-55.28,0c-61.06,0-110.55,49.5-110.55,110.55v73.7L239.53,221.1z"/>
<g>
	<path fill="#1A171B" d="M2901.58,33.93h-19.31c-32.75,0-54.37,20.76-54.37,51.77v86.55c0,30.99,21.35,51.76,54.37,51.76h14.34
		c32.75,0,54.39-20.77,54.39-51.76v-44.46c0-2.06-0.88-2.93-2.94-2.93h-61.1c-2.04,0-2.92,0.87-2.92,2.93v24.87
		c0,2.04,0.88,2.91,2.92,2.91h27.49c1.76,0,2.91,0.89,2.91,2.94v13.74c0,11.97-9.05,21.05-20.74,21.05h-14.34
		c-11.7,0-21.05-9.35-21.05-21.05V85.69c0-11.7,9.35-21.07,21.05-21.07h19.31c8.48,0,14.04,4.98,19.01,14.04
		c1.76,3.21,2.35,4.98,4.08,4.98c0.31,0,0.89,0,1.48-0.3l25.43-12.57c1.17-0.59,1.77-1.48,1.77-2.36c0-3.49-7.02-16.66-18.45-24.84
		C2925.85,37.14,2915.02,33.93,2901.58,33.93 M2794.64,218.16V39.78c0-2.04-1.16-2.91-2.91-2.91h-26.91c-2.04,0-2.93,0.87-2.93,2.91
		l1.17,117.25l-59.65-118.71l-2.62-1.45h-24.55c-2.07,0-2.93,0.87-2.93,2.91v178.39c0,2.04,0.86,2.91,2.93,2.91h27.17
		c2.07,0,2.92-0.87,2.92-2.91l-1.46-116.1l59.95,117.54l2.65,1.46h24.26C2793.78,221.07,2794.64,220.2,2794.64,218.16
		 M2639.58,172.24V39.78c0-2.04-0.87-2.91-2.91-2.91h-27.78c-2.07,0-2.94,0.87-2.94,2.91v132.47c0,11.97-9.06,21.05-20.76,21.05
		h-14.33c-11.69,0-21.04-9.35-21.04-21.05V39.78c0-2.04-1.18-2.91-2.91-2.91h-27.5c-2.04,0-2.92,0.87-2.92,2.91v132.47
		c0,30.99,21.35,51.76,54.38,51.76h14.33C2617.94,224.01,2639.58,203.23,2639.58,172.24 M2491.81,64.63V39.78
		c0-2.04-1.18-2.91-2.93-2.91h-102.92c-2.07,0-2.94,0.87-2.94,2.91v24.85c0,2.04,0.87,2.93,2.94,2.93h31.86
		c2.06,0,2.92,0.87,2.92,2.92v147.68c0,2.04,0.89,2.91,2.93,2.91h27.49c2.04,0,2.91-0.87,2.91-2.91V70.48c0-2.06,0.9-2.92,2.94-2.92
		h31.88C2490.93,67.55,2491.81,66.67,2491.81,64.63 M2383.02,218.16v-24.87c0-2.06-1.17-2.92-2.91-2.92h-69.6
		c-2.04,0-2.93-0.88-2.93-2.92V39.78c0-2.04-1.16-2.91-2.92-2.91h-27.78c-2.04,0-2.93,0.87-2.93,2.91v178.39
		c0,2.04,0.88,2.91,2.93,2.91h103.22C2382.16,221.07,2383.02,220.2,2383.02,218.16 M2195.75,152.06c0,0.29,0.31,0.87,0.31,1.17
		c0,1.73-1.19,2.63-3.23,2.63h-21.35c-2.04,0-3.2-0.9-3.2-2.63c0-0.31,0.27-0.88,0.27-1.17l9.96-38.61
		c0.29-1.74,1.47-7.01,3.5-16.07h0.87c1.76,9.06,2.94,14.33,3.21,16.07L2195.75,152.06z M2250.15,217.26l-54.4-178.35
		c-0.58-1.48-1.46-2.04-2.92-2.04h-21.05c-1.76,0-2.34,0.56-2.93,2.04l-54.38,178.35c0,0.59-0.29,0.9-0.29,1.17
		c0,1.77,1.16,2.64,3.2,2.64h29.24c1.46,0,2.65-0.59,2.94-2.05l8.75-30.7c0.3-1.48,1.18-1.75,2.94-1.75h41.81
		c1.75,0,2.64,0.27,2.92,1.75l8.77,30.7c0.3,1.45,1.17,2.05,2.93,2.05h29.53c2.05,0,3.21-0.87,3.21-2.64
		C2250.42,218.16,2250.15,217.85,2250.15,217.26 M2117.34,64.63V39.78c0-2.04-1.15-2.91-2.91-2.91H2011.5
		c-2.04,0-2.92,0.87-2.92,2.91v24.85c0,2.04,0.88,2.93,2.92,2.93h31.89c2.04,0,2.91,0.87,2.91,2.92v147.68
		c0,2.04,0.87,2.91,2.94,2.91h27.47c2.04,0,2.92-0.87,2.92-2.91V70.48c0-2.06,0.88-2.92,2.93-2.92h31.88
		C2116.48,67.55,2117.34,66.67,2117.34,64.63 M1931.21,64.63h4.38c9.08,0,14.04,5.26,19.58,14.62c1.77,2.63,2.35,4.4,3.81,4.4
		c0.29,0,0.88,0,1.46-0.3l25.45-12.57c1.17-0.59,1.75-1.17,1.75-2.36c0-3.49-7.31-16.66-18.72-24.84
		c-9.37-6.71-19.88-9.66-33.34-9.66h-4.38c-32.75,0-54.39,20.76-54.39,51.77c0,28.93,16.37,42.09,48.54,57.58
		c19.01,9.08,31.3,14.33,31.3,28.97c0,11.7-9.65,21.05-21.06,21.05h-11.7c-6.73,0-14.03-4.37-17.26-10.52
		c-2.91-5.85-3.51-8.77-5.56-8.77c-0.58,0-0.87,0-1.46,0.29l-25.44,12.56c-1.15,0.59-1.74,1.48-1.74,2.07
		c0,2.91,3.78,11.39,13.44,21.32c8.77,9.06,21.35,13.77,38.01,13.77h11.7c33.05,0,54.4-20.77,54.4-51.76
		c0-28.97-14.62-45.03-45.93-59.35c-20.46-9.38-33.9-13.47-33.9-27.2C1910.16,73.69,1919.82,64.63,1931.21,64.63 M1849.18,218.16
		v-24.87c0-2.06-1.15-2.92-2.92-2.92h-69.58c-2.04,0-2.94-0.88-2.94-2.92v-41.53c0-2.04,0.9-2.91,2.94-2.91h57.02
		c2.04,0,2.94-0.87,2.94-2.94v-24.85c0-2.04-0.9-2.91-2.94-2.91h-57.02c-2.04,0-2.94-0.88-2.94-2.94V70.48
		c0-2.06,0.9-2.92,2.94-2.92h69.58c2.07,0,2.92-0.88,2.92-2.93V39.78c0-2.04-1.15-2.91-2.92-2.91h-103.19
		c-2.07,0-2.94,0.87-2.94,2.91v178.39c0,2.04,0.87,2.91,2.94,2.91h103.19C1848.33,221.07,1849.18,220.2,1849.18,218.16
		 M1657.17,33.93h-19.28c-32.76,0-54.4,20.76-54.4,51.77v86.55c0,30.99,21.35,51.76,54.4,51.76h14.31
		c32.75,0,54.39-20.77,54.39-51.76v-44.46c0-2.06-0.87-2.93-2.94-2.93h-61.1c-2.04,0-2.92,0.87-2.92,2.93v24.87
		c0,2.04,0.88,2.91,2.92,2.91h27.49c1.75,0,2.94,0.89,2.94,2.94v13.74c0,11.97-9.08,21.05-20.78,21.05h-14.31
		c-11.69,0-21.06-9.35-21.06-21.05V85.69c0-11.7,9.37-21.07,21.06-21.07h19.28c8.48,0,14.04,4.98,19.01,14.04
		c1.75,3.21,2.34,4.98,4.08,4.98c0.3,0,0.9,0,1.48-0.3l25.43-12.57c1.17-0.59,1.77-1.48,1.77-2.36c0-3.49-7.02-16.66-18.41-24.84
		C1681.44,37.14,1670.63,33.93,1657.17,33.93 M1415.35,64.63h4.39c9.07,0,14.04,5.26,19.6,14.62c1.75,2.63,2.33,4.4,3.79,4.4
		c0.29,0,0.88,0,1.46-0.3l25.45-12.57c1.17-0.59,1.75-1.17,1.75-2.36c0-3.49-7.31-16.66-18.72-24.84
		c-9.37-6.71-19.88-9.66-33.34-9.66h-4.39c-32.74,0-54.37,20.76-54.37,51.77c0,28.93,16.36,42.09,48.52,57.58
		c19.01,9.08,31.3,14.33,31.3,28.97c0,11.7-9.64,21.05-21.06,21.05h-11.7c-6.73,0-14.03-4.37-17.26-10.52
		c-2.91-5.85-3.5-8.77-5.56-8.77c-0.58,0-0.85,0-1.46,0.29l-25.43,12.56c-1.16,0.59-1.74,1.48-1.74,2.07
		c0,2.91,3.78,11.39,13.43,21.32c8.77,9.06,21.35,13.77,38.02,13.77h11.7c33.04,0,54.4-20.77,54.4-51.76
		c0-28.97-14.62-45.03-45.92-59.35c-20.45-9.38-33.91-13.47-33.91-27.2C1394.3,73.69,1403.96,64.63,1415.35,64.63 M1329.02,218.16
		V39.78c0-2.04-0.9-2.91-2.94-2.91h-27.47c-2.05,0-2.93,0.87-2.93,2.91v69.58c0,2.06-0.88,2.94-2.92,2.94h-54.4
		c-2.04,0-2.91-0.88-2.91-2.94V39.78c0-2.04-1.18-2.91-2.94-2.91h-27.76c-2.06,0-2.94,0.87-2.94,2.91v178.39
		c0,2.04,0.88,2.91,2.94,2.91h27.76c2.04,0,2.94-0.87,2.94-2.91v-72.25c0-2.04,0.86-2.91,2.91-2.91h54.4c2.04,0,2.92,0.87,2.92,2.91
		v72.25c0,2.04,0.87,2.91,2.93,2.91h27.47C1328.11,221.07,1329.02,220.2,1329.02,218.16 M1175.09,64.63V39.78
		c0-2.04-1.16-2.91-2.93-2.91h-102.92c-2.06,0-2.92,0.87-2.92,2.91v24.85c0,2.04,0.87,2.93,2.92,2.93h31.86
		c2.04,0,2.92,0.87,2.92,2.92v147.68c0,2.04,0.89,2.91,2.92,2.91h27.47c2.07,0,2.94-0.87,2.94-2.91V70.48
		c0-2.06,0.87-2.92,2.91-2.92h31.89C1174.21,67.55,1175.09,66.67,1175.09,64.63 M1014.81,152.06c0,0.29,0.3,0.87,0.3,1.17
		c0,1.73-1.17,2.63-3.23,2.63h-21.33c-2.06,0-3.22-0.9-3.22-2.63c0-0.31,0.27-0.88,0.27-1.17l9.96-38.61
		c0.27-1.74,1.46-7.01,3.5-16.07h0.88c1.73,9.06,2.92,14.33,3.2,16.07L1014.81,152.06z M1069.21,217.26l-54.4-178.35
		c-0.58-1.48-1.46-2.04-2.93-2.04h-21.05c-1.75,0-2.34,0.56-2.92,2.04l-54.4,178.35c0,0.59-0.27,0.9-0.27,1.17
		c0,1.77,1.18,2.64,3.22,2.64h29.24c1.46,0,2.63-0.59,2.91-2.05l8.79-30.7c0.29-1.48,1.17-1.75,2.91-1.75h41.83
		c1.75,0,2.62,0.27,2.91,1.75l8.79,30.7c0.29,1.45,1.17,2.05,2.91,2.05h29.55c2.04,0,3.2-0.87,3.2-2.64
		C1069.48,218.16,1069.21,217.85,1069.21,217.26 M878.64,91.24c0,11.69-9.66,21.06-21.06,21.06h-32.15c-2.05,0-2.94-0.88-2.94-2.94
		V70.48c0-2.06,0.88-2.92,2.94-2.92h32.15c11.41,0,21.06,9.66,21.06,21.05V91.24z M914.91,217.26l-27.78-80.41v-0.29
		c0-2.62,6.73-6.12,12-11.1c5.85-6.44,12.85-17.54,12.85-31.28v-2.94c0-33.32-21.05-54.37-54.4-54.37h-65.79
		c-2.04,0-2.91,0.87-2.91,2.91v178.39c0,2.04,0.87,2.91,2.91,2.91h27.79c2.06,0,2.91-0.87,2.91-2.91v-72.25
		c0-2.04,0.88-2.91,2.94-2.91h26.01l2.33,1.75l25.74,74.27c0.88,1.45,1.77,2.05,2.65,2.05h30.1c2.07,0,2.95-0.87,2.95-2.35
		C915.21,218.43,915.21,217.85,914.91,217.26 M758.71,218.16v-24.87c0-2.06-1.19-2.92-2.94-2.92h-69.59c-2.04,0-2.92-0.88-2.92-2.92
		v-41.53c0-2.04,0.88-2.91,2.92-2.91h57.02c2.04,0,2.92-0.87,2.92-2.94v-24.85c0-2.04-0.88-2.91-2.92-2.91h-57.02
		c-2.04,0-2.92-0.88-2.92-2.94V70.48c0-2.06,0.88-2.92,2.92-2.92h69.59c2.05,0,2.94-0.88,2.94-2.93V39.78
		c0-2.04-1.19-2.91-2.94-2.91H652.56c-2.05,0-2.92,0.87-2.92,2.91v178.39c0,2.04,0.87,2.91,2.92,2.91h103.21
		C757.82,221.07,758.71,220.2,758.71,218.16 M614.04,218.16V39.78c0-2.04-1.17-2.91-2.91-2.91h-27.78c-2.07,0-2.94,0.87-2.94,2.91
		v178.39c0,2.04,0.87,2.91,2.94,2.91h27.78C613.18,221.07,614.04,220.2,614.04,218.16 M497.46,33.93h-19.31
		c-32.74,0-54.37,20.76-54.37,51.77v86.55c0,30.99,21.35,51.76,54.37,51.76h14.35c32.74,0,54.4-20.77,54.4-51.76v-44.46
		c0-2.06-0.9-2.93-2.94-2.93h-61.12c-2.04,0-2.93,0.87-2.93,2.93v24.87c0,2.04,0.88,2.91,2.93,2.91h27.49
		c1.76,0,2.91,0.89,2.91,2.94v13.74c0,11.97-9.05,21.05-20.74,21.05h-14.35c-11.7,0-21.05-9.35-21.05-21.05V85.69
		c0-11.7,9.35-21.07,21.05-21.07h19.31c8.5,0,14.04,4.98,19.01,14.04c1.77,3.21,2.34,4.98,4.1,4.98c0.29,0,0.86,0,1.46-0.3
		l25.45-12.57c1.16-0.59,1.75-1.48,1.75-2.36c0-3.49-7.02-16.66-18.44-24.84C521.74,37.14,510.91,33.93,497.46,33.93"/>
</g>
</svg>
